<?xml version="1.0" encoding="utf-8"?>
<!-- Generator: Adobe Illustrator 19.2.1, SVG Export Plug-In . SVG Version: 6.00 Build 0)  -->
<svg version="1.1" id="Layer_1" xmlns="http://www.w3.org/2000/svg" xmlns:xlink="http://www.w3.org/1999/xlink" x="0px" y="0px"
	 viewBox="0 0 512 512" style="enable-background:new 0 0 512 512;" xml:space="preserve">
<style type="text/css">
	.st0{clip-path:url(#SVGID_5_);}
	.st1{clip-path:url(#SVGID_6_);fill:#FFFFFF;}
	.st2{clip-path:url(#SVGID_9_);}
	.st3{clip-path:url(#SVGID_10_);fill:#FFFFFF;}
	.st4{clip-path:url(#SVGID_13_);}
	.st5{clip-path:url(#SVGID_14_);fill:#FFFFFF;}
</style>
<g>
	<g>
		<defs>
			<rect id="SVGID_1_" width="512" height="512"/>
		</defs>
		<clipPath id="SVGID_2_">
			<use xlink:href="#SVGID_1_"  style="overflow:visible;"/>
		</clipPath>
	</g>
	<g>
		<defs>
			<rect id="SVGID_3_" width="512" height="512"/>
		</defs>
		<defs>
			<path id="SVGID_4_" d="M320.9,239.4c-18.3,0-27.7,14.4-27.7,36.2c0,20.6,10.1,36,27.7,36c19.9,0,27.3-18.2,27.3-36
				C348.2,257,338.8,239.4,320.9,239.4 M272.1,185.4h21.8v52.2h0.4c5.9-9.9,18.4-16,29.4-16c31.2,0,46.3,24.5,46.3,54.4
				c0,27.5-13.4,53.4-42.6,53.4c-13.4,0-27.7-3.4-34.2-16.8h-0.4v14.1h-20.7L272.1,185.4L272.1,185.4"/>
		</defs>
		<clipPath id="SVGID_5_">
			<use xlink:href="#SVGID_3_"  style="overflow:visible;"/>
		</clipPath>
		<clipPath id="SVGID_6_" class="st0">
			<use xlink:href="#SVGID_4_"  style="overflow:visible;"/>
		</clipPath>
		<rect x="267.1" y="180.4" class="st1" width="107.9" height="154"/>
	</g>
	<g>
		<defs>
			<rect id="SVGID_7_" width="512" height="512"/>
		</defs>
		<defs>
			<path id="SVGID_8_" d="M450.4,258.6c-1.7-12.5-10.5-19.2-22.6-19.2c-11.3,0-27.2,6.1-27.2,37.2c0,17,7.3,35,26.2,35
				c12.6,0,21.4-8.7,23.5-23.4h21.8c-4,26.5-19.9,41.1-45.3,41.1c-31,0-48-22.7-48-52.8c0-30.9,16.3-55,48.8-55
				c22.9,0,42.5,11.9,44.6,37L450.4,258.6L450.4,258.6"/>
		</defs>
		<clipPath id="SVGID_9_">
			<use xlink:href="#SVGID_7_"  style="overflow:visible;"/>
		</clipPath>
		<clipPath id="SVGID_10_" class="st2">
			<use xlink:href="#SVGID_8_"  style="overflow:visible;"/>
		</clipPath>
		<rect x="373.9" y="216.6" class="st3" width="103.3" height="117.8"/>
	</g>
	<g>
		<defs>
			<rect id="SVGID_11_" width="512" height="512"/>
		</defs>
		<defs>
			<polyline id="SVGID_12_" points="195.9,326.3 32.4,326.3 108.8,185.4 272.2,185.4 195.9,326.3 			"/>
		</defs>
		<clipPath id="SVGID_13_">
			<use xlink:href="#SVGID_11_"  style="overflow:visible;"/>
		</clipPath>
		<clipPath id="SVGID_14_" class="st4">
			<use xlink:href="#SVGID_12_"  style="overflow:visible;"/>
		</clipPath>
		<rect x="27.4" y="180.4" class="st5" width="249.8" height="150.9"/>
	</g>
</g>
</svg>
