<svg id="Layer_1" data-name="Layer 1" xmlns="http://www.w3.org/2000/svg" viewBox="0 0 383.24 104.31"><defs><style>.cls-1{fill:#010101;}.cls-2{fill:#fff;}</style></defs><title>logo</title><path class="cls-1" d="M96.47,21.84a72,72,0,0,0-.18,21.93c-27.51-.44-40,0.7-40,0.7l0.95,77.32c-8.66.4-18.6,1.39-18.6,1.39,2-58.15.28-71.91,0.28-71.91L22.36,52c1.09-16.63,1.12-29.39,1.12-29.39Z" transform="translate(-22.36 -18.87)"/><path class="cls-1" d="M63.31,50.57l21.64-1L84.78,71.51c5.44,1.62,18.77.09,18.77,0.09V21.93c7.69,0.32,16.23.23,16.23,0.23-0.5,45.22,1.74,75.13,1.74,75.13a275.12,275.12,0,0,0,41-.67l0.16,24.89L98.46,122.6c1.86-17.77,0-26.26,0-26.26l-16.77.28c-1.31,9.45.85,23,.85,23-7.38-.2-19.45,1.79-19.45,1.79C66,93.77,63.31,50.57,63.31,50.57Z" transform="translate(-22.36 -18.87)"/><path class="cls-1" d="M142.57,40.4l0.22,11.08c8.12,0.12,19.42-.73,19.42-0.73a47.56,47.56,0,0,0,.39,12.56,133.4,133.4,0,0,0-21.73.25l0.2,8.23c17.91,0.49,25.23-1.1,25.23-1.1-0.95,19.17,1.08,22.38,1.08,22.38a358.19,358.19,0,0,0-39.67.81c1.66-37.71-.83-73.73-0.83-73.73l38.42-1.27A119.83,119.83,0,0,0,166.12,39Z" transform="translate(-22.36 -18.87)"/><path class="cls-2" d="M233.23,95.39s2.94-14.89-13.69-19.88c0,0,15.89-2.73,12.77-27.28,0,0,.89-28.76-16.54-27.66l-41,.67s3.13,24.55,1.05,100.42l46-1.7S236.58,119.31,233.23,95.39Zm-41.37-29.6,0.38-21.5L205.11,44s6.44-.14,5.61,10.91c0,0,2.36,10.08-7.46,10.76Zm17.82,34.86-15,.22V85.27l14.44,0.29s7.49-.11,6.55,7.35C215.69,92.9,217.68,101.08,209.68,100.65Z" transform="translate(-22.36 -18.87)"/><path class="cls-2" d="M291.64,99.62l7.12-.07a130.84,130.84,0,0,1-.72-25.8,22.78,22.78,0,0,1-6.91,0l-1-52.86a139.11,139.11,0,0,1-21-.73L236.4,77.92l1,22.17,36.81-.26-0.59,19.65,19.25-.26ZM255.31,74.69l18.54-33.87L274,74.41Z" transform="translate(-22.36 -18.87)"/><path class="cls-2" d="M317.51,48l1.05,0c16.15-.51,37.22.07,37.22,0.07A142.41,142.41,0,0,1,356,19.66c-31.56,2.88-54.32.62-54.32,0.62,1.94,31.21.8,55.8,0.8,55.8a75.81,75.81,0,0,1,17.66.22c1.4-4.81,7-5.24,7-5.24,9.21-1.44,8.18,11.14,8.18,11.14,1.56,14.23-7.25,12.61-7.25,12.61-9,1.34-8-9.13-8-9.13-10,.25-17.29-0.26-17.29-0.26-1.2,15,1.25,23.87,1.25,23.87,3.54,13.17,31.72,10.3,31.72,10.3,25.49,1.12,23.08-30.27,23.08-30.27,2.63-32.56-25-31.26-25-31.26-11.56.58-15.68,4.58-15.68,4.58A39.79,39.79,0,0,1,317.51,48Z" transform="translate(-22.36 -18.87)"/><path class="cls-2" d="M363.9,19.5l11.43,0.26-6.21,17.07a38.44,38.44,0,0,0-9.75,0Z" transform="translate(-22.36 -18.87)"/><path class="cls-2" d="M398.95,49.42C388,49.83,387.41,46,387.41,46c-1.77-5.56,2-6.05,2-6.05,3.9-.31,3.89,5.21,3.89,5.21l9.77-.7-0.15-8.9c-0.48-7.63-15.51-6.91-15.51-6.91-14.74-.24-13.89,16.23-13.89,16.23,0.31,12.48,17.76,10.59,17.76,10.59,3.23-.09,3.24,1.71,3.24,1.71,0.64,2.63-2.78,2.51-2.78,2.51-11.61.1-17.13-1.18-17.13-1.18a82.57,82.57,0,0,1,.31,13.22c19.27,2.42,25.75-1.67,25.75-1.67,4.8-1.85,4.91-11.12,4.91-11.12C405.88,49,398.95,49.42,398.95,49.42Z" transform="translate(-22.36 -18.87)"/></svg>